<mxfile host="app.diagrams.net" modified="2023-04-25T11:40:43.439Z" agent="Mozilla/5.0 (Macintosh; Intel Mac OS X 10_15_7) AppleWebKit/537.36 (KHTML, like Gecko) Chrome/112.0.0.0 Safari/537.36" etag="aab4_QS_Rl-9G5RTmmT2" version="21.2.1" type="github">
  <diagram name="第 1 页" id="rQrgdCwCjtSHpjdYiyRV">
    <mxGraphModel dx="1023" dy="546" grid="1" gridSize="10" guides="1" tooltips="1" connect="1" arrows="1" fold="1" page="1" pageScale="1" pageWidth="827" pageHeight="1169" math="0" shadow="0">
      <root>
        <mxCell id="0" />
        <mxCell id="1" parent="0" />
        <mxCell id="zxwil83umstml-mQuDCK-4" style="edgeStyle=orthogonalEdgeStyle;rounded=0;orthogonalLoop=1;jettySize=auto;html=1;exitX=0.5;exitY=1;exitDx=0;exitDy=0;" edge="1" parent="1" source="zxwil83umstml-mQuDCK-1" target="zxwil83umstml-mQuDCK-3">
          <mxGeometry relative="1" as="geometry" />
        </mxCell>
        <mxCell id="zxwil83umstml-mQuDCK-1" value="拉取实际数据" style="rounded=1;whiteSpace=wrap;html=1;" vertex="1" parent="1">
          <mxGeometry x="234" y="110" width="120" height="60" as="geometry" />
        </mxCell>
        <mxCell id="zxwil83umstml-mQuDCK-5" style="edgeStyle=orthogonalEdgeStyle;rounded=0;orthogonalLoop=1;jettySize=auto;html=1;exitX=0.5;exitY=1;exitDx=0;exitDy=0;entryX=0.5;entryY=0;entryDx=0;entryDy=0;" edge="1" parent="1" source="zxwil83umstml-mQuDCK-2" target="zxwil83umstml-mQuDCK-3">
          <mxGeometry relative="1" as="geometry">
            <mxPoint x="394" y="230" as="targetPoint" />
          </mxGeometry>
        </mxCell>
        <mxCell id="zxwil83umstml-mQuDCK-2" value="拉取预测数据" style="rounded=1;whiteSpace=wrap;html=1;" vertex="1" parent="1">
          <mxGeometry x="474" y="110" width="120" height="60" as="geometry" />
        </mxCell>
        <mxCell id="zxwil83umstml-mQuDCK-13" style="edgeStyle=orthogonalEdgeStyle;rounded=0;orthogonalLoop=1;jettySize=auto;html=1;exitX=0.5;exitY=1;exitDx=0;exitDy=0;entryX=0.5;entryY=0;entryDx=0;entryDy=0;" edge="1" parent="1" source="zxwil83umstml-mQuDCK-3" target="zxwil83umstml-mQuDCK-7">
          <mxGeometry relative="1" as="geometry" />
        </mxCell>
        <mxCell id="zxwil83umstml-mQuDCK-3" value="依据max从实际数据里取出最大值currentMax，预测数据取出upperMax、lowerMin" style="rounded=1;whiteSpace=wrap;html=1;" vertex="1" parent="1">
          <mxGeometry x="324" y="230" width="180" height="60" as="geometry" />
        </mxCell>
        <mxCell id="zxwil83umstml-mQuDCK-18" style="edgeStyle=orthogonalEdgeStyle;rounded=0;orthogonalLoop=1;jettySize=auto;html=1;exitX=0.5;exitY=1;exitDx=0;exitDy=0;entryX=0.5;entryY=0;entryDx=0;entryDy=0;" edge="1" parent="1" source="zxwil83umstml-mQuDCK-7" target="zxwil83umstml-mQuDCK-16">
          <mxGeometry relative="1" as="geometry" />
        </mxCell>
        <mxCell id="zxwil83umstml-mQuDCK-20" value="是" style="edgeLabel;html=1;align=center;verticalAlign=middle;resizable=0;points=[];" vertex="1" connectable="0" parent="zxwil83umstml-mQuDCK-18">
          <mxGeometry x="-0.0802" y="-2" relative="1" as="geometry">
            <mxPoint y="2" as="offset" />
          </mxGeometry>
        </mxCell>
        <mxCell id="zxwil83umstml-mQuDCK-19" style="edgeStyle=orthogonalEdgeStyle;rounded=0;orthogonalLoop=1;jettySize=auto;html=1;exitX=0.5;exitY=1;exitDx=0;exitDy=0;entryX=0.5;entryY=0;entryDx=0;entryDy=0;" edge="1" parent="1" source="zxwil83umstml-mQuDCK-7" target="zxwil83umstml-mQuDCK-17">
          <mxGeometry relative="1" as="geometry" />
        </mxCell>
        <mxCell id="zxwil83umstml-mQuDCK-21" value="否" style="edgeLabel;html=1;align=center;verticalAlign=middle;resizable=0;points=[];" vertex="1" connectable="0" parent="zxwil83umstml-mQuDCK-19">
          <mxGeometry x="-0.0742" y="-2" relative="1" as="geometry">
            <mxPoint y="-2" as="offset" />
          </mxGeometry>
        </mxCell>
        <mxCell id="zxwil83umstml-mQuDCK-7" value="currentMax &amp;gt; upperMax || currentMax &amp;lt; lowerMin?" style="rounded=1;whiteSpace=wrap;html=1;" vertex="1" parent="1">
          <mxGeometry x="268" y="340" width="291" height="60" as="geometry" />
        </mxCell>
        <mxCell id="zxwil83umstml-mQuDCK-14" value="最大值是否超出边界值" style="text;html=1;strokeColor=none;fillColor=none;align=center;verticalAlign=middle;whiteSpace=wrap;rounded=0;" vertex="1" parent="1">
          <mxGeometry x="344" y="50" width="140" height="30" as="geometry" />
        </mxCell>
        <mxCell id="zxwil83umstml-mQuDCK-16" value="创建告警" style="rounded=1;whiteSpace=wrap;html=1;" vertex="1" parent="1">
          <mxGeometry x="234" y="460" width="120" height="60" as="geometry" />
        </mxCell>
        <mxCell id="zxwil83umstml-mQuDCK-17" value="不创建告警" style="rounded=1;whiteSpace=wrap;html=1;" vertex="1" parent="1">
          <mxGeometry x="474" y="460" width="120" height="60" as="geometry" />
        </mxCell>
      </root>
    </mxGraphModel>
  </diagram>
</mxfile>
